# xmcd
#
# Track frame offsets:
#	150
#	12180
#	26417
#	38805
#	50580
#	64630
#	77210
#	90317
#	102995
#	116582
#	131462
#	147005
#	157637
#	172880
#	185225
#	195457
#	208047
#	222172
#	238787
#	251237
#	266997
#	280905
#	295762
#	308697
#	321422
#	336630
#
# Disc length: 4715 seconds
#
# Revision: 1
# Processed by: cddbd v1.5.2PL0 Copyright (c) Steve Scherf et al.
# Submitted via: EZCDAudioConverter 3.1.7.1
#
DISCID=7d12691a
DTITLE=Darrell McCall - The Real McCall [CD4]
DYEAR=1996
DGENRE=Country
TTITLE0=Pins And Needles (In My Heart)
TTITLE1=Every Girl I See
TTITLE2=Waltz Of The Angels
TTITLE3=I Just Destroyed The World
TTITLE4=Tennessee
TTITLE5=I Come Home To Face The Music
TTITLE6=Are You Teasing Me
TTITLE7=Sad Songs And Waltzes
TTITLE8=The Days When You Were Still In Love With Me
TTITLE9=Dreams Of A Dreamer
TTITLE10=It's My Lazy Day
TTITLE11=It's Been So Long Darlin'
TTITLE12=Lily Dale (with Willie Nelson)
TTITLE13=Please Don't Leave Me (with Willie Nelson)
TTITLE14=Half Beered Up And Drinkin'
TTITLE15=The Weeds Outlived The Roses
TTITLE16=An Old Memory's Arms
TTITLE17=Down The Roads Of Daddy's Dreams
TTITLE18=Love Didn't Drive My Good Woman Wild
TTITLE19=Willie-B
TTITLE20=It Took Us All Night Long To Say Goodbye
TTITLE21=Long Line Of Empties
TTITLE22=I Wonder Which One Of Us Is To Blame
TTITLE23=Married Women
TTITLE24=Afternoon Rendezvous (with Mona McCall)
TTITLE25=Just Ridin' Through
EXTD=
EXTT0=
EXTT1=
EXTT2=
EXTT3=
EXTT4=
EXTT5=
EXTT6=
EXTT7=
EXTT8=
EXTT9=
EXTT10=
EXTT11=
EXTT12=
EXTT13=
EXTT14=
EXTT15=
EXTT16=
EXTT17=
EXTT18=
EXTT19=
EXTT20=
EXTT21=
EXTT22=
EXTT23=
EXTT24=
EXTT25=
PLAYORDER=
